<svg enable-background="new 0 0 256 256" viewBox="0 0 256 256" xmlns="http://www.w3.org/2000/svg"><path d="m133.11 95.922c-1.207-10.701-14.342-15.535-22.203-7.934-.711.688-1.583 1.154-2.515 1.437v-40.13c0-1.105-.895-2-2-2h-84.567c-6.557 0-11.872 5.315-11.872 11.872v88.441h41.457c-1.094 2.781-5.398 4.689-5.398 11.6 0 7.771 6.735 13.969 14.687 13.075 10.698-1.203 15.546-14.337 7.939-22.203-.677-.7-1.14-1.556-1.425-2.472h41.18v-42.407c.834.321 1.603.803 2.239 1.454 8.637 8.831 23.898 1.86 22.478-10.733z" fill="#f9a7a7"/><path d="m133.11 196.215c-1.217-10.794-14.463-15.419-22.203-7.935-.711.688-1.583 1.154-2.515 1.437 0-17.577 0-24.791 0-42.109h-41.18c.285.916.748 1.772 1.425 2.472 7.602 7.861 2.764 20.997-7.935 22.203-7.953.896-14.69-5.302-14.69-13.075 0-6.917 4.301-8.809 5.398-11.6h-41.457v88.441c0 6.557 5.315 11.872 11.872 11.872h86.567c0-14.773 0-22.052 0-42.428 2.87 1.105 4.078 4.681 10.239 5.335h2.815c7.094-.755 12.505-7.148 11.664-14.613z" fill="#4671c6"/><path d="m234.175 8.078h-84.566c-1.105 0-2 .895-2 2v40.13c3.194-.971 3.97-4.255 9.989-5.016h3.445c5.892.779 10.619 5.608 11.285 11.514 1.424 12.64-13.902 19.5-22.479 10.732-.636-.65-1.405-1.132-2.239-1.454v5.335 37.072h36.155v.003h5.335c-.321.834-.803 1.603-1.454 2.239-8.761 8.57-1.93 23.906 10.732 22.479 10.794-1.216 15.419-14.463 7.935-22.203-.688-.711-1.154-1.583-1.437-2.515h5.016v-.003h34.155c1.105 0 2-.895 2-2v-86.441c0-6.557-5.315-11.872-11.872-11.872z" fill="#6bdddd"/><path d="m170.674 147.609v.003h-5.016c.969 3.187 4.256 3.976 5.016 9.989v3.445c-.779 5.891-5.608 10.619-11.514 11.285-12.639 1.424-19.5-13.903-10.732-22.479.65-.637 1.132-1.405 1.454-2.239h-5.335v-.003h-36.155v42.109c.933-.283 1.804-.75 2.515-1.437 7.737-7.482 20.986-2.862 22.203 7.935.841 7.465-4.569 13.858-11.664 14.614h-2.815c-6.159-.654-7.37-4.23-10.239-5.335v42.428h86.566c6.557 0 11.872-5.315 11.872-11.872v-88.441h-36.156z" fill="#a4c9ff"/><g fill="#3762cc"><path d="m59.207 174.368c-3.729 0-7.348-1.36-10.136-3.852-3.216-2.875-5.061-6.996-5.061-11.307 0-4.841 1.869-7.603 3.5-9.6h-37.557c-1.104 0-2-.896-2-2v-88.442c0-7.649 6.223-13.872 13.871-13.872h84.567c2.206 0 4 1.794 4 4v36.471c4.109-3.409 9.661-4.397 14.766-2.565 5.483 1.97 9.292 6.759 9.939 12.497.738 6.543-2.612 12.59-8.537 15.404-5.468 2.596-11.647 1.807-16.168-1.949v38.457c0 1.104-.896 2-2 2h-37.497c3.381 4.104 4.357 9.637 2.529 14.723-1.972 5.486-6.763 9.295-12.502 9.94-.572.063-1.145.095-1.714.095zm-47.254-28.759h39.456c.661 0 1.28.327 1.653.874.372.547.45 1.242.208 1.858-.467 1.186-1.259 2.126-2.098 3.122-1.555 1.845-3.162 3.754-3.162 7.747 0 3.173 1.358 6.208 3.727 8.325 2.399 2.145 5.501 3.126 8.736 2.763 4.213-.474 7.732-3.278 9.186-7.318 1.471-4.091.551-8.393-2.461-11.507-.861-.892-1.499-1.991-1.896-3.268-.189-.607-.078-1.268.299-1.78s.975-.814 1.61-.814h39.181v-40.407c0-.659.324-1.275.868-1.648.543-.374 1.235-.455 1.85-.218 1.139.438 2.132 1.084 2.95 1.921 3.37 3.444 8.389 4.319 12.784 2.231 3.468-1.647 6.938-5.492 6.278-11.342-.476-4.211-3.279-7.729-7.317-9.18-4.092-1.47-8.395-.551-11.508 2.46-.903.874-2.021 1.517-3.323 1.913-.606.185-1.264.071-1.772-.307-.51-.377-.81-.973-.81-1.607v-40.13h-84.568c-5.443 0-9.871 4.429-9.871 9.872z"/><path d="m108.392 249.922h-86.568c-7.648 0-13.871-6.223-13.871-13.872v-88.441c0-1.104.896-2 2-2h41.456c.661 0 1.28.327 1.653.874.372.547.45 1.242.208 1.858-.468 1.19-1.262 2.131-2.102 3.128-1.553 1.842-3.158 3.746-3.158 7.74 0 3.174 1.358 6.208 3.727 8.325 2.402 2.146 5.511 3.125 8.74 2.762 4.211-.475 7.729-3.279 9.181-7.319 1.47-4.092.551-8.394-2.46-11.506-.861-.892-1.499-1.991-1.896-3.269-.189-.607-.078-1.268.299-1.78s.975-.814 1.61-.814h41.181c1.104 0 2 .896 2 2v38.45c4.1-3.396 9.664-4.371 14.798-2.527 5.467 1.965 9.263 6.739 9.907 12.46.46 4.074-.688 8.063-3.23 11.232-2.549 3.177-6.175 5.164-10.209 5.594-.07.007-.141.011-.212.011h-2.814c-.07 0-.141-.004-.211-.011-4.09-.434-6.38-2.058-8.028-3.442v38.546c-.001 1.105-.897 2.001-2.001 2.001zm-96.439-100.313v86.441c0 5.443 4.428 9.872 9.871 9.872h84.567v-40.428c0-.659.325-1.276.868-1.649.543-.374 1.236-.455 1.851-.217 1.334.514 2.327 1.371 3.287 2.201 1.495 1.292 3.041 2.626 6.343 3h2.595c2.927-.338 5.556-1.795 7.412-4.108 1.87-2.332 2.714-5.273 2.375-8.281-.479-4.258-3.203-7.676-7.286-9.143-4.061-1.461-8.485-.533-11.539 2.422-.904.874-2.022 1.518-3.324 1.913-.606.185-1.265.07-1.772-.307-.509-.377-.809-.973-.809-1.606v-40.108h-35.498c3.38 4.103 4.356 9.635 2.528 14.721-1.971 5.485-6.759 9.294-12.497 9.941-4.314.485-8.638-.881-11.853-3.754-3.217-2.875-5.062-6.996-5.062-11.308 0-4.847 1.87-7.605 3.5-9.6h-35.557z"/><path d="m196.738 135.206c-5.863 0-10.938-3.188-13.517-8.62-2.604-5.483-1.823-11.673 1.928-16.192h-1.385c-.037 0-.073-.001-.109-.003h-36.046c-1.104 0-2-.896-2-2v-42.407c0-.659.325-1.276.868-1.649.543-.374 1.237-.455 1.852-.217 1.141.44 2.132 1.086 2.949 1.922 3.361 3.437 8.385 4.304 12.8 2.207 3.458-1.643 6.92-5.478 6.262-11.317-.559-4.953-4.517-9.028-9.436-9.738h-3.177c-3.035.408-4.372 1.511-5.787 2.678-1.049.865-2.134 1.76-3.749 2.251-.606.185-1.263.07-1.773-.307-.509-.377-.809-.974-.809-1.607v-40.13c0-2.206 1.794-4 4-4h84.566c7.648 0 13.871 6.223 13.871 13.872v86.441c0 2.206-1.794 4-4 4h-34.046c-.036.002-.073.003-.109.003h-1.356c3.396 4.101 4.371 9.665 2.526 14.797-1.965 5.467-6.739 9.264-12.46 9.909-.627.072-1.249.107-1.863.107zm-12.864-28.812h5.226c.659 0 1.275.325 1.648.868s.455 1.235.218 1.851c-.438 1.139-1.085 2.132-1.922 2.95-3.438 3.364-4.306 8.391-2.209 12.807 1.641 3.455 5.463 6.913 11.319 6.255 4.258-.48 7.676-3.204 9.144-7.287 1.46-4.063.531-8.484-2.422-11.539-.874-.902-1.518-2.021-1.914-3.324-.184-.606-.069-1.263.308-1.772s.973-.809 1.606-.809h4.906c.036-.002.073-.003.109-.003h34.155v-86.441c0-5.443-4.428-9.872-9.871-9.872h-84.566v36.53c1.605-1.319 3.651-2.884 7.737-3.4.083-.01.167-.016.251-.016h3.444c.088 0 .176.006.263.017 6.772.896 12.243 6.478 13.01 13.272.748 6.635-2.517 12.528-8.521 15.379-5.482 2.602-11.668 1.823-16.185-1.925v36.456h34.155c.039 0 .075.001.111.003z"/><path d="m194.958 249.922h-86.566c-1.104 0-2-.896-2-2v-42.428c0-.659.325-1.276.868-1.649.543-.374 1.236-.455 1.851-.217 1.334.513 2.326 1.371 3.287 2.2 1.495 1.292 3.041 2.627 6.343 3.001h2.595c2.927-.338 5.556-1.795 7.412-4.108 1.87-2.332 2.714-5.273 2.375-8.281-.48-4.258-3.203-7.676-7.286-9.143-4.063-1.46-8.485-.532-11.539 2.422-.904.874-2.022 1.518-3.324 1.913-.606.185-1.265.07-1.772-.307-.509-.377-.809-.973-.809-1.606v-42.108c0-1.104.896-2 2-2h36.155c.037 0 .073.001.109.003h5.226c.659 0 1.276.325 1.649.868.372.543.454 1.236.217 1.851-.438 1.14-1.085 2.132-1.92 2.95-3.438 3.362-4.305 8.386-2.209 12.799 1.643 3.459 5.464 6.923 11.318 6.263 4.952-.558 9.027-4.516 9.737-9.435v-3.178c-.408-3.032-1.513-4.372-2.681-5.79-.865-1.05-1.76-2.135-2.249-3.748-.185-.606-.071-1.264.307-1.772.377-.509.973-.809 1.606-.809h4.907c.036-.002.072-.003.109-.003h36.155c1.104 0 2 .896 2 2v88.441c.001 7.648-6.222 13.871-13.871 13.871zm-84.566-4h84.566c5.443 0 9.872-4.429 9.872-9.872v-86.441h-34.046c-.036.002-.072.003-.109.003h-1.417c1.32 1.608 2.885 3.656 3.401 7.738.011.083.016.167.016.251v3.445c0 .088-.006.175-.018.262-.896 6.772-6.478 12.244-13.272 13.01-6.629.751-12.528-2.518-15.379-8.522-2.603-5.481-1.822-11.667 1.927-16.184h-1.386c-.037 0-.073-.001-.109-.003h-34.046v36.45c4.101-3.396 9.665-4.372 14.798-2.526 5.466 1.964 9.263 6.738 9.907 12.459.46 4.075-.688 8.063-3.23 11.232-2.549 3.177-6.175 5.164-10.209 5.594-.07.007-.141.011-.212.011h-2.814c-.07 0-.141-.004-.211-.011-4.089-.434-6.379-2.058-8.028-3.442v36.546z"/></g></svg>